<?xml version="1.0" encoding="UTF-8"?>
<svg version="1.1" viewBox="0 0 1972 1960" width="493" height="490" xmlns="http://www.w3.org/2000/svg">
<path transform="translate(969,668)" d="m0 0h34l29 3 26 5 25 7 26 10 21 10 17 10 12 8 14 10 13 11 8 7 7 6v2l4 2 7 8 11 12 12 16 12 18 12 21 11 24 9 25 8 32 4 28 1 14v33l-2 24-5 27-6 23-7 20-7 17-8 16-10 18-8 12-10 14-12 14-7 8-20 20-11 9-17 13-19 12-22 12-20 9-33 11-27 6-20 3-28 2h-14l-30-2-29-5-26-7-20-7-23-10-22-12-21-14-13-10-15-13-14-13-7-8-10-11-15-20-12-19-11-20-10-23-10-30-6-26-3-20-2-23v-27l2-23 4-24 6-25 9-26 9-21 14-26 13-19 9-12 11-13 9-10 14-14 11-9 12-10 24-16 16-9 22-11 24-9 25-7 26-5z" fill="#099DA1"/>
<path transform="translate(1588,355)" d="m0 0h351l1 1v1236l-3 1h-349l-1-6v-79l1-1h264v-1066h-264l-1-6v-79z" fill="#BE2A26"/>
<path transform="translate(32,355)" d="m0 0h351l1 1v84l-2 1h-50l-213 1v1063l-1 2h265l1 1v84l-2 1h-350z" fill="#C12926"/>
<path transform="translate(1384,1008)" d="m0 0h148l1 1-1 18-4 31-5 29-8 33-9 29-8 22-13 31-11 23-13 23-13 22-7 10-10 15-7 9-8 10-14 17-9 10-13 14-5 5-7 6-4 5-8 7-11 10-10 8-10 9-16 12-13 9-21 14-28 16-16 8-25 12-30 12-36 12-30 8-31 6-35 5-23 2-1-3v-146l10-2 27-4 27-6 28-8 25-9 24-11 23-12 23-14 12-8 13-10 10-8 11-9 8-8 8-7 11-12 9-11 10-11 13-18 10-15 9-14 6-11 14-29 12-31 8-27 6-26z" fill="#9B2D27"/>
<path transform="translate(442,1010)" d="m0 0h144l2 3 5 35 6 26 6 21 8 23 11 26 10 20 11 19 14 21 12 16 8 10 12 14 28 28 11 9 16 13 19 13 14 9 21 12 27 13 23 9 21 7 26 7 34 6 18 3 1 1v144l-1 1-15-1-38-5-31-6-31-8-36-12-21-8-29-13-29-15-25-15-25-17-12-9-14-11-13-11-20-18-28-28-7-8-12-14-11-14-14-19-15-23-12-20-12-22-12-25-8-19-9-24-10-31-8-32-6-33-4-31-1-16z" fill="#F29833"/>
<path transform="translate(942,429)" d="m0 0h7l1 1v144l-9 2-36 6-32 8-30 10-32 14-21 11-23 14-17 12-18 14-10 9-8 7-9 8-7 8-12 12-11 14-12 15-16 24-11 19-12 23-11 26-12 36-7 30-4 24-2 15-1 2h-146l1-16 5-37 6-31 8-31 12-37 13-32 12-25 12-23 12-20 12-18 12-17 12-16 11-13 9-10 7-8 3-4h2l2-4 20-20 8-7 10-9 11-9 15-12 18-13 15-10 21-13 27-15 27-13 27-11 28-10 36-10 28-6 32-5z" fill="#0A8486"/>
<path transform="translate(1023,429)" d="m0 0 17 1 38 5 31 6 31 8 36 12 25 10 26 12 20 10 24 14 14 9 16 11 19 14 11 9 13 11 8 7 10 9 27 27 7 8 12 14 8 10 15 20 18 27 12 20 14 26 12 25 13 33 11 33 9 36 5 26 5 37 1 9v9l-143 1-3-1-6-38-7-31-7-23-8-21-9-21-10-20-13-22-12-18-12-16-13-16-14-15-19-19-8-7-16-13-17-12-15-10-24-14-24-12-33-13-26-8-26-6-29-5-14-2-1-17v-127z" fill="#E6562D"/>
<path transform="translate(969,816)" d="m0 0h35l17 3 20 6 20 9 19 12 13 11 14 14 10 13 8 13 8 16 7 21 4 21 1 14v10l-2 20-5 21-7 19-10 19-10 14-9 10-5 6-8 7-12 9-16 10-15 7-18 6-19 4-7 1h-33l-20-4-17-5-18-8-14-8-12-9-10-9-13-13-13-18-10-18-6-15-5-18-3-19v-27l4-24 4-14 6-16 3-6 4 2 8 7 14 7 9 2h15l12-3 10-5 10-9 6-8 4-8 3-14v-11l-3-12-6-12-6-7v-2l18-7 18-4z" fill="#2B2B2B"/>
<path transform="translate(969,668)" d="m0 0h34l29 3 26 5 25 7 26 10 21 10 17 10 12 8 14 10 13 11 8 7 7 6v2l4 2 7 8 11 12 12 16 12 18 12 21 11 24 9 25 8 32 4 28 1 14v33l-2 24-5 27-6 23-7 20-7 17-8 16-10 18-8 12-10 14-12 14-7 8-20 20-11 9-17 13-19 12-22 12-20 9-33 11-27 6-20 3-28 2h-14l-30-2-29-5-26-7-20-7-23-10-22-12-21-14-13-10-15-13-14-13-7-8-10-11-15-20-12-19-11-20-10-23-10-30-6-26-3-20-2-23v-27l2-23 4-24 6-25 9-26 9-21 14-26 13-19 9-12 11-13 9-10 14-14 11-9 12-10 24-16 16-9 22-11 24-9 25-7 26-5zm-3 29-28 4-27 6-27 9-24 11-23 13-14 10-12 9-12 11-8 7-7 7-7 8-13 16-9 13-8 13-11 20-10 24-7 22-6 26-3 22-1 12v26l3 28 5 26 7 24 10 25 8 17 13 22 13 17 8 10 12 13 13 13 11 9 16 12 19 12 21 11 25 10 19 6 21 5 26 4 11 1h30l28-3 29-6 23-7 22-9 22-11 19-12 12-9 13-10v-2l4-2 9-8v-2l4-2 7-8 9-10 12-16 14-22 11-21 8-20 7-21 6-25 3-20 1-11v-39l-3-25-4-21-7-24-9-24-8-17-10-17-8-12-11-14-9-11-14-15-12-11-17-13-16-11-19-11-23-11-19-7-21-6-24-5-25-3z" fill="#2B2B2B"/>
<path transform="translate(877,815)" d="m0 0h20l13 4 9 5 10 9 8 13 3 9 1 6v11l-3 14-5 10-9 10-7 6-10 5-12 3h-15l-11-3-12-6-10-9-8-13-3-9-1-9v-10l3-12 6-12 9-10 10-7 10-4z" fill="#FCFCFB"/>
<path transform="translate(1e3 863)" d="m0 0h10l10 4 7 8 3 8v9l-4 9-6 7-9 4h-12l-10-5-5-6-3-7-1-8 2-8 4-6 8-7z" fill="#FCFBF9"/>
<path transform="translate(871,1225)" d="m0 0 5 1 21 8 20 6 25 5 23 2 37 1 24-2 16-3h7v1l-28 5-21 2h-30l-26-3-24-5-21-6-24-9z" fill="#0B8486"/>
<path transform="translate(1161,760)" d="m0 0 4 2 20 18 12 13 11 14 8 11 10 16 10 18 6 14-1 3-13-26-8-14-7-10-4-6-9-12v-2h-2l-7-9-6-5-7-8-5-4-6-7-6-5z" fill="#0B8486"/>
<path transform="translate(763,1137)" d="m0 0 7 6 7 9 11 13 9 9 8 7 4 5-4-2-12-11-13-13-9-11-8-10z" fill="#0B8486"/>
<path transform="translate(735,1089)" d="m0 0 4 4 3 7 3 6 7 12 7 11 4 5-1 3-8-11-9-15-8-15z" fill="#0B8486"/>
<path transform="translate(854,1061)" d="m0 0 4 4 10 13 17 17h-3l-5-4v-2l-4-2v-2l-4-2-5-6v-2h-2l-7-10z" fill="#0B8486"/>
<path transform="translate(804,765)" d="m0 0v3l-27 27v-3l16-17z" fill="#0A8B8E"/>
<path transform="translate(639,285)" d="m0 0 4 1 1 5-4 1-3-2 1-4z" fill="#E9F2F0"/>
</svg>
